<svg version="1.0" xmlns="http://www.w3.org/2000/svg" width="235.000000ptpx" height="117.000000ptpx" viewBox="0 0 235.000000 117.000000" preserveAspectRatio="xMidYMid meet" transform="rotate(0) scale(1, 1)">
<metadata>
Created by potrace 1.16, written by Peter Selinger 2001-2019
</metadata>
<g transform="translate(0.000000,117.000000) scale(0.100000,-0.100000)" fill="#ffffff" stroke="none">
<path d="M582 860 l-32 -20 2 -222 3 -223 35 0 35 0 3 243 c1 133 -1 242 -5&#10;242 -5 0 -23 -9 -41 -20z"/>
<path d="M293 850 c-58 -35 -63 -58 -63 -270 l0 -190 40 0 40 0 0 95 0 95 90&#10;0 90 0 0 40 0 40 -90 0 -90 0 0 43 c0 23 7 53 16 65 14 20 23 22 105 22 l89 0&#10;0 40 0 40 -97 0 c-80 0 -104 -4 -130 -20z"/>
<path d="M778 720 c-52 -28 -81 -73 -86 -135 -6 -69 11 -117 53 -154 63 -55&#10;152 -63 223 -19 36 22 39 34 16 59 -15 16 -17 16 -50 -3 -61 -36 -164 -2 -164&#10;54 0 16 11 18 130 18 l130 0 0 33 c0 42 -37 115 -71 140 -40 29 -134 33 -181&#10;7z"/>
<path d="M1720 729 c-14 -6 -35 -20 -47 -31 l-23 -21 0 26 c0 25 -3 27 -40 27&#10;l-40 0 2 -167 3 -168 35 0 35 0 5 100 c6 126 28 165 89 165 23 0 26 4 36 48 6&#10;27 4 32 -12 31 -10 0 -29 -5 -43 -10z"/>
<path d="M1885 721 c-134 -60 -141 -250 -12 -318 42 -22 132 -22 174 0 81 43&#10;116 152 75 233 -24 48 -47 69 -95 89 -48 20 -93 19 -142 -4z m148 -91 c73 -81&#10;-10 -207 -109 -165 -64 26 -85 106 -43 159 43 54 105 57 152 6z"/>
<path d="M1050 725 c0 -3 25 -37 55 -76 30 -39 55 -75 55 -81 0 -5 -27 -45&#10;-60 -88 -33 -43 -60 -81 -60 -84 0 -3 20 -6 44 -6 43 0 46 2 83 55 21 30 41&#10;55 44 55 4 0 24 -25 44 -55 37 -52 40 -55 82 -55 23 0 43 3 43 7 0 3 -24 38&#10;-53 77 -29 39 -57 77 -61 84 -5 9 13 40 53 93 l62 79 -48 0 c-46 -1 -49 -2&#10;-82 -50 -18 -28 -36 -50 -40 -50 -3 0 -21 23 -39 50 -31 48 -34 50 -77 50 -25&#10;0 -45 -2 -45 -5z"/>
<path d="M1422 563 l3 -168 38 -3 37 -3 0 170 0 171 -40 0 -40 0 2 -167z"/>
</g>
</svg>